<mxfile host="65bd71144e">
    <diagram id="sinjBYFT7_JI7XQT1NR6" name="Page-1">
        <mxGraphModel dx="0" dy="403" grid="1" gridSize="10" guides="1" tooltips="1" connect="1" arrows="1" fold="1" page="1" pageScale="1" pageWidth="1169" pageHeight="827" math="0" shadow="0">
            <root>
                <mxCell id="0"/>
                <mxCell id="1" parent="0"/>
                <mxCell id="2" value="" style="shape=image;verticalLabelPosition=bottom;labelBackgroundColor=default;verticalAlign=top;aspect=fixed;imageAspect=0;image=https://www.shejiqun.com/Dynamic/20140729/User/m44/12599403.jpg;" vertex="1" parent="1">
                    <mxGeometry x="10" y="10" width="520" height="390" as="geometry"/>
                </mxCell>
            </root>
        </mxGraphModel>
    </diagram>
</mxfile>